{
  "accessors": [
    {
      "bufferView": 2,
      "componentType": 5126,
      "count": 65532,
      "max": [
        -3.8857150077819824,
        0.07446599751710892,
        10.712869644165039
      ],
      "min": [
        -9.427882194519043,
        -7.44119119644165,
        -9.203356742858887
      ],
      "type": "VEC3"
    },
    {
      "bufferView": 2,
      "byteOffset": 786384,
      "componentType": 5126,
      "count": 65532,
      "max": [
        0.9793964624404907,
        0.999946653842926,
        0.9999638795852661
      ],
      "min": [
        -0.9999997615814209,
        -0.9999997615814209,
        -0.9992080926895142
      ],
      "type": "VEC3"
    },
    {
      "bufferView": 1,
      "componentType": 5126,
      "count": 65532,
      "max": [
        0.9992679953575134,
        0.9969279766082764
      ],
      "min": [
        0.0007319999858736992,
        0.000737000023946166
      ],
      "type": "VEC2"
    },
    {
      "bufferView": 0,
      "componentType": 5125,
      "count": 351732,
      "type": "SCALAR"
    },
    {
      "bufferView": 2,
      "byteOffset": 1572768,
      "componentType": 5126,
      "count": 65532,
      "max": [
        1.151286005973816,
        0.0813089981675148,
        8.773429870605469
      ],
      "min": [
        -9.347772598266602,
        -7.461318016052246,
        -9.906339645385742
      ],
      "type": "VEC3"
    },
    {
      "bufferView": 2,
      "byteOffset": 2359152,
      "componentType": 5126,
      "count": 65532,
      "max": [
        0.9972798824310303,
        0.9997481107711792,
        0.9999984502792358
      ],
      "min": [
        -0.9999926686286926,
        -0.9999998807907104,
        -0.9999786615371704
      ],
      "type": "VEC3"
    },
    {
      "bufferView": 1,
      "byteOffset": 524256,
      "componentType": 5126,
      "count": 65532,
      "max": [
        0.9987789988517761,
        0.9971740245819092
      ],
      "min": [
        0.0007319999858736992,
        0.000737000023946166
      ],
      "type": "VEC2"
    },
    {
      "bufferView": 0,
      "byteOffset": 1406928,
      "componentType": 5125,
      "count": 349950,
      "type": "SCALAR"
    },
    {
      "bufferView": 2,
      "byteOffset": 3145536,
      "componentType": 5126,
      "count": 65532,
      "max": [
        11.30470085144043,
        0.8353059887886047,
        17.048810958862305
      ],
      "min": [
        -9.450243949890137,
        -7.197122097015381,
        -19.983713150024414
      ],
      "type": "VEC3"
    },
    {
      "bufferView": 2,
      "byteOffset": 3931920,
      "componentType": 5126,
      "count": 65532,
      "max": [
        0.9999648928642273,
        0.9974241256713867,
        0.9999899864196777
      ],
      "min": [
        -0.9989476203918457,
        -0.9999998807907104,
        -0.999862551689148
      ],
      "type": "VEC3"
    },
    {
      "bufferView": 1,
      "byteOffset": 1048512,
      "componentType": 5126,
      "count": 65532,
      "max": [
        0.9968259930610657,
        0.9985259771347046
      ],
      "min": [
        0.016968000680208206,
        0.008968999609351158
      ],
      "type": "VEC2"
    },
    {
      "bufferView": 0,
      "byteOffset": 2806728,
      "componentType": 5125,
      "count": 357021,
      "type": "SCALAR"
    },
    {
      "bufferView": 2,
      "byteOffset": 4718304,
      "componentType": 5126,
      "count": 65532,
      "max": [
        21.200048446655273,
        1.0453829765319824,
        20.77999496459961
      ],
      "min": [
        -16.290111541748047,
        -6.987452983856201,
        -17.1251277923584
      ],
      "type": "VEC3"
    },
    {
      "bufferView": 2,
      "byteOffset": 5504688,
      "componentType": 5126,
      "count": 65532,
      "max": [
        0.999110996723175,
        0.9930716156959534,
        0.9972208738327026
      ],
      "min": [
        -0.9992206692695618,
        -0.9999998807907104,
        -0.9990202188491821
      ],
      "type": "VEC3"
    },
    {
      "bufferView": 1,
      "byteOffset": 1572768,
      "componentType": 5126,
      "count": 65532,
      "max": [
        0.9992679953575134,
        0.9879590272903442
      ],
      "min": [
        0.0007319999858736992,
        0.000737000023946166
      ],
      "type": "VEC2"
    },
    {
      "bufferView": 0,
      "byteOffset": 4234812,
      "componentType": 5125,
      "count": 361149,
      "type": "SCALAR"
    },
    {
      "bufferView": 2,
      "byteOffset": 6291072,
      "componentType": 5126,
      "count": 65532,
      "max": [
        21.153242111206055,
        1.2545000314712524,
        17.964269638061523
      ],
      "min": [
        -19.434167861938477,
        -7.015042781829834,
        -19.998172760009766
      ],
      "type": "VEC3"
    },
    {
      "bufferView": 2,
      "byteOffset": 7077456,
      "componentType": 5126,
      "count": 65532,
      "max": [
        0.9984071254730225,
        0.9998156428337097,
        0.8821722269058228
      ],
      "min": [
        -0.9952709078788757,
        -1.0,
        -0.9838232398033142
      ],
      "type": "VEC3"
    },
    {
      "bufferView": 1,
      "byteOffset": 2097024,
      "componentType": 5126,
      "count": 65532,
      "max": [
        0.9992679953575134,
        0.9874680042266846
      ],
      "min": [
        0.002879000036045909,
        0.000737000023946166
      ],
      "type": "VEC2"
    },
    {
      "bufferView": 0,
      "byteOffset": 5679408,
      "componentType": 5125,
      "count": 359214,
      "type": "SCALAR"
    },
    {
      "bufferView": 2,
      "byteOffset": 7863840,
      "componentType": 5126,
      "count": 65532,
      "max": [
        11.286380767822266,
        0.7495499849319458,
        20.779617309570313
      ],
      "min": [
        -9.332953453063965,
        -7.07431697845459,
        -9.938156127929688
      ],
      "type": "VEC3"
    },
    {
      "bufferView": 2,
      "byteOffset": 8650224,
      "componentType": 5126,
      "count": 65532,
      "max": [
        0.9999945163726807,
        0.9997109770774841,
        0.9999667406082153
      ],
      "min": [
        -0.9982545971870422,
        -1.0,
        -0.9999996423721313
      ],
      "type": "VEC3"
    },
    {
      "bufferView": 1,
      "byteOffset": 2621280,
      "componentType": 5126,
      "count": 65532,
      "max": [
        0.9992679953575134,
        0.9926279783248901
      ],
      "min": [
        0.0015869999770075083,
        0.000859999970998615
      ],
      "type": "VEC2"
    },
    {
      "bufferView": 0,
      "byteOffset": 7116264,
      "componentType": 5125,
      "count": 358779,
      "type": "SCALAR"
    },
    {
      "bufferView": 2,
      "byteOffset": 9436608,
      "componentType": 5126,
      "count": 43205,
      "max": [
        6.239431858062744,
        -0.10868100076913834,
        10.673419952392578
      ],
      "min": [
        0.7585060000419617,
        -7.1448540687561035,
        -9.808850288391113
      ],
      "type": "VEC3"
    },
    {
      "bufferView": 2,
      "byteOffset": 9955068,
      "componentType": 5126,
      "count": 43205,
      "max": [
        0.9999417662620544,
        0.9981821179389954,
        0.9999667406082153
      ],
      "min": [
        -0.9981585144996643,
        -0.9999987483024597,
        -0.999934732913971
      ],
      "type": "VEC3"
    },
    {
      "bufferView": 1,
      "byteOffset": 3145536,
      "componentType": 5126,
      "count": 43205,
      "max": [
        0.9992679953575134,
        0.9992629885673523
      ],
      "min": [
        0.0007319999858736992,
        0.000737000023946166
      ],
      "type": "VEC2"
    },
    {
      "bufferView": 0,
      "byteOffset": 8551380,
      "componentType": 5125,
      "count": 233826,
      "type": "SCALAR"
    }
  ],
  "asset": {
    "extras": {
      "author": "pilips (https://sketchfab.com/pilips)",
      "license": "CC-BY-4.0 (http://creativecommons.org/licenses/by/4.0/)",
      "source": "https://sketchfab.com/3d-models/food-14734817cb074dcf954acfcbc1140885",
      "title": "Food"
    },
    "generator": "Sketchfab-12.68.0",
    "version": "2.0"
  },
  "bufferViews": [
    {
      "buffer": 0,
      "byteLength": 9486684,
      "name": "floatBufferViews",
      "target": 34963
    },
    {
      "buffer": 0,
      "byteLength": 3491176,
      "byteOffset": 9486684,
      "byteStride": 8,
      "name": "floatBufferViews",
      "target": 34962
    },
    {
      "buffer": 0,
      "byteLength": 10473528,
      "byteOffset": 12977860,
      "byteStride": 12,
      "name": "floatBufferViews",
      "target": 34962
    }
  ],
  "buffers": [
    {
      "byteLength": 23451388,
      "uri": "scene.bin"
    }
  ],
  "extensionsUsed": [
    "KHR_materials_unlit"
  ],
  "images": [
    {
      "uri": "textures/Material_0_baseColor.jpeg"
    }
  ],
  "materials": [
    {
      "doubleSided": true,
      "extensions": {
        "KHR_materials_unlit": {}
      },
      "name": "Material_0",
      "pbrMetallicRoughness": {
        "baseColorTexture": {
          "index": 0
        },
        "metallicFactor": 0.0
      }
    }
  ],
  "meshes": [
    {
      "name": "Object_0",
      "primitives": [
        {
          "attributes": {
            "NORMAL": 1,
            "POSITION": 0,
            "TEXCOORD_0": 2
          },
          "indices": 3,
          "material": 0,
          "mode": 4
        }
      ]
    },
    {
      "name": "Object_1",
      "primitives": [
        {
          "attributes": {
            "NORMAL": 5,
            "POSITION": 4,
            "TEXCOORD_0": 6
          },
          "indices": 7,
          "material": 0,
          "mode": 4
        }
      ]
    },
    {
      "name": "Object_2",
      "primitives": [
        {
          "attributes": {
            "NORMAL": 9,
            "POSITION": 8,
            "TEXCOORD_0": 10
          },
          "indices": 11,
          "material": 0,
          "mode": 4
        }
      ]
    },
    {
      "name": "Object_3",
      "primitives": [
        {
          "attributes": {
            "NORMAL": 13,
            "POSITION": 12,
            "TEXCOORD_0": 14
          },
          "indices": 15,
          "material": 0,
          "mode": 4
        }
      ]
    },
    {
      "name": "Object_4",
      "primitives": [
        {
          "attributes": {
            "NORMAL": 17,
            "POSITION": 16,
            "TEXCOORD_0": 18
          },
          "indices": 19,
          "material": 0,
          "mode": 4
        }
      ]
    },
    {
      "name": "Object_5",
      "primitives": [
        {
          "attributes": {
            "NORMAL": 21,
            "POSITION": 20,
            "TEXCOORD_0": 22
          },
          "indices": 23,
          "material": 0,
          "mode": 4
        }
      ]
    },
    {
      "name": "Object_6",
      "primitives": [
        {
          "attributes": {
            "NORMAL": 25,
            "POSITION": 24,
            "TEXCOORD_0": 26
          },
          "indices": 27,
          "material": 0,
          "mode": 4
        }
      ]
    }
  ],
  "nodes": [
    {
      "children": [
        1
      ],
      "matrix": [
        1.0,
        0.0,
        0.0,
        0.0,
        0.0,
        -1.0,
        -4.440892098500626e-16,
        0.0,
        0.0,
        4.440892098500626e-16,
        -1.0,
        0.0,
        0.0,
        -1.8837884664535531,
        3.8492906093597408,
        1.0
      ],
      "name": "Sketchfab_model"
    },
    {
      "children": [
        2,
        3,
        4,
        5,
        6,
        7,
        8
      ],
      "name": "foood.obj.cleaner.materialmerger.gles"
    },
    {
      "mesh": 0,
      "name": "Object_2"
    },
    {
      "mesh": 1,
      "name": "Object_3"
    },
    {
      "mesh": 2,
      "name": "Object_4"
    },
    {
      "mesh": 3,
      "name": "Object_5"
    },
    {
      "mesh": 4,
      "name": "Object_6"
    },
    {
      "mesh": 5,
      "name": "Object_7"
    },
    {
      "mesh": 6,
      "name": "Object_8"
    }
  ],
  "samplers": [
    {
      "magFilter": 9729,
      "minFilter": 9987,
      "wrapS": 10497,
      "wrapT": 10497
    }
  ],
  "scene": 0,
  "scenes": [
    {
      "name": "Sketchfab_Scene",
      "nodes": [
        0
      ]
    }
  ],
  "textures": [
    {
      "sampler": 0,
      "source": 0
    }
  ]
}
